<svg width="25" height="31" viewBox="0 0 25 31" fill="none" xmlns="http://www.w3.org/2000/svg">
<path d="M0 3.30371C0 1.75098 1.39974 0.491211 3.125 0.491211V3.30371V26.3545L11.5951 20.9111C12.1354 20.5596 12.8711 20.5596 13.4115 20.9111L21.875 26.3545V3.30371H3.125V0.491211H21.875C23.6003 0.491211 25 1.75098 25 3.30371V29.085C25 29.6123 24.6745 30.0928 24.1536 30.333C23.6328 30.5732 23.0078 30.5322 22.5326 30.2275L12.5 23.7822L2.46745 30.2275C1.99219 30.5322 1.36719 30.5732 0.846354 30.333C0.325521 30.0928 0 29.6123 0 29.085V3.30371Z" fill="#F1FCFD"/>
</svg>
