<svg width="100" height="100" viewBox="0 0 100 100" fill="none" xmlns="http://www.w3.org/2000/svg">
<g clip-path="url(#clip0_83_468)">
<path d="M0 50C0 63.2608 5.26784 75.9785 14.6447 85.3553C24.0215 94.7322 36.7392 100 50 100C63.2608 100 75.9785 94.7322 85.3553 85.3553C94.7322 75.9785 100 63.2608 100 50C100 36.7392 94.7322 24.0215 85.3553 14.6447C75.9785 5.26784 63.2608 0 50 0C36.7392 0 24.0215 5.26784 14.6447 14.6447C5.26784 24.0215 0 36.7392 0 50Z" fill="#CEE4FF"/>
<path fill-rule="evenodd" clip-rule="evenodd" d="M74.1829 29.7454C76.4929 31.5936 76.8672 34.9649 75.0193 37.2752L46.4478 72.9891C44.6402 75.2491 41.3651 75.6649 39.0503 73.9284L24.7646 63.2144C22.3976 61.4391 21.9179 58.0813 23.6931 55.7144C25.4683 53.3474 28.8262 52.8677 31.1931 54.6429L41.3249 62.2418L66.6528 30.5821C68.501 28.2717 71.8722 27.8971 74.1829 29.7454Z" fill="#2859C5"/>
</g>
<defs>
<clipPath id="clip0_83_468">
<rect width="100" height="100" fill="white"/>
</clipPath>
</defs>
</svg>
