<svg width="22" height="20" viewBox="0 0 22 20" fill="none" xmlns="http://www.w3.org/2000/svg">
<path d="M4.61426 9.375H17.7979C17.9727 9.375 18.1403 9.44085 18.264 9.55806C18.3876 9.67527 18.457 9.83424 18.457 10C18.457 10.1658 18.3876 10.3247 18.264 10.4419C18.1403 10.5592 17.9727 10.625 17.7979 10.625H4.61426C4.43943 10.625 4.27177 10.5592 4.14815 10.4419C4.02453 10.3247 3.95508 10.1658 3.95508 10C3.95508 9.83424 4.02453 9.67527 4.14815 9.55806C4.27177 9.44085 4.43943 9.375 4.61426 9.375Z" fill="#107BFD"/>
<path d="M4.88712 9.99981L10.3544 15.1823C10.4781 15.2997 10.5477 15.4588 10.5477 15.6248C10.5477 15.7908 10.4781 15.95 10.3544 16.0673C10.2306 16.1847 10.0627 16.2506 9.88765 16.2506C9.71261 16.2506 9.54473 16.1847 9.42095 16.0673L3.48834 10.4423C3.42695 10.3843 3.37825 10.3153 3.34501 10.2394C3.31178 10.1634 3.29468 10.082 3.29468 9.99981C3.29468 9.9176 3.31178 9.8362 3.34501 9.76027C3.37825 9.68434 3.42695 9.61537 3.48834 9.55731L9.42095 3.93231C9.54473 3.81495 9.71261 3.74902 9.88765 3.74902C10.0627 3.74902 10.2306 3.81495 10.3544 3.93231C10.4781 4.04967 10.5477 4.20884 10.5477 4.37481C10.5477 4.54078 10.4781 4.69995 10.3544 4.81731L4.88712 9.99981Z" fill="#107BFD"/>
</svg>
