<svg width="33" height="33" viewBox="0 0 33 33" fill="none" xmlns="http://www.w3.org/2000/svg">
<path opacity="0.5" d="M2.75 16.5C2.75 8.90588 8.90588 2.75 16.5 2.75C24.0941 2.75 30.25 8.90588 30.25 16.5C30.25 24.0941 24.0941 30.25 16.5 30.25C8.90588 30.25 2.75 24.0941 2.75 16.5Z" fill="#107BFD"/>
<path fill-rule="evenodd" clip-rule="evenodd" d="M16.1123 9.92066C16.1794 9.66227 16.1438 9.3879 16.0128 9.15525C15.8819 8.9226 15.6658 8.74981 15.41 8.67322C15.1543 8.59664 14.8788 8.62223 14.6415 8.74461C14.4042 8.86699 14.2236 9.07662 14.1378 9.32941L13.1203 12.7188H9.625C9.3515 12.7188 9.08919 12.8274 8.8958 13.0208C8.7024 13.2142 8.59375 13.4765 8.59375 13.75C8.59375 14.0235 8.7024 14.2858 8.8958 14.4792C9.08919 14.6726 9.3515 14.7813 9.625 14.7813H12.5015L11.4703 18.2188H8.25C7.9765 18.2188 7.71419 18.3274 7.5208 18.5208C7.3274 18.7142 7.21875 18.9765 7.21875 19.25C7.21875 19.5235 7.3274 19.7858 7.5208 19.9792C7.71419 20.1726 7.9765 20.2813 8.25 20.2813H10.8515L10.0128 23.078C9.94367 23.337 9.9781 23.6126 10.1088 23.8466C10.2394 24.0806 10.456 24.2545 10.7127 24.3316C10.9694 24.4086 11.246 24.3827 11.4839 24.2594C11.7218 24.136 11.9023 23.9248 11.9873 23.6707L13.0048 20.2813H17.7265L16.8878 23.078C16.8187 23.337 16.8531 23.6126 16.9838 23.8466C17.1144 24.0806 17.331 24.2545 17.5877 24.3316C17.8444 24.4086 18.121 24.3827 18.3589 24.2594C18.5968 24.136 18.7773 23.9248 18.8623 23.6707L19.8798 20.2813H23.375C23.6485 20.2813 23.9108 20.1726 24.1042 19.9792C24.2976 19.7858 24.4063 19.5235 24.4063 19.25C24.4063 18.9765 24.2976 18.7142 24.1042 18.5208C23.9108 18.3274 23.6485 18.2188 23.375 18.2188H20.4985L21.5298 14.7813H24.75C25.0235 14.7813 25.2858 14.6726 25.4792 14.4792C25.6726 14.2858 25.7813 14.0235 25.7813 13.75C25.7813 13.4765 25.6726 13.2142 25.4792 13.0208C25.2858 12.8274 25.0235 12.7188 24.75 12.7188H22.1485L22.9873 9.92066C23.0544 9.66227 23.0188 9.3879 22.8878 9.15525C22.7569 8.9226 22.5408 8.74981 22.285 8.67322C22.0293 8.59664 21.7538 8.62223 21.5165 8.74461C21.2792 8.86699 21.0986 9.07662 21.0128 9.32941L19.9953 12.7188H15.2735L16.1123 9.92066ZM19.3765 14.7813L18.3453 18.2188H13.6235L14.6548 14.7813H19.3765Z" fill="#107BFD"/>
</svg>
