<svg width="13" height="13" viewBox="0 0 13 13" fill="none" xmlns="http://www.w3.org/2000/svg">
<g clip-path="url(#clip0_76_77)">
<path opacity="0.16" d="M6.5 11.375C9.19239 11.375 11.375 9.19239 11.375 6.5C11.375 3.80761 9.19239 1.625 6.5 1.625C3.80761 1.625 1.625 3.80761 1.625 6.5C1.625 9.19239 3.80761 11.375 6.5 11.375Z" fill="#107BFD"/>
<path d="M3.05283 9.94713C3.85041 10.7447 4.89988 11.2411 6.02241 11.3516C7.14493 11.4621 8.27104 11.1799 9.20883 10.5531C10.1466 9.92638 10.8381 8.99383 11.1653 7.9144C11.4926 6.83497 11.4354 5.67545 11.0035 4.63346C10.5716 3.59146 9.7918 2.73146 8.7969 2.20002C7.80199 1.66858 6.65358 1.49858 5.54738 1.71899C4.44117 1.9394 3.44563 2.53659 2.7304 3.40877C2.01517 4.28096 1.62451 5.37418 1.625 6.50213V7.5833" stroke="#107BFD" stroke-width="1.66667" stroke-linecap="round" stroke-linejoin="round"/>
<path d="M0.541748 6.50016L1.62508 7.5835L2.70841 6.50016M5.95841 4.3335V7.04183H8.66675" stroke="#107BFD" stroke-width="1.66667" stroke-linecap="round" stroke-linejoin="round"/>
</g>
<defs>
<clipPath id="clip0_76_77">
<rect width="13" height="13" fill="white"/>
</clipPath>
</defs>
</svg>
