<svg width="23" height="23" viewBox="0 0 23 23" fill="none" xmlns="http://www.w3.org/2000/svg">
<path d="M8 21.2098H5.66667C3.08934 21.2098 1 19.1205 1 16.5432V9.20204C1 7.57019 1.85238 6.05688 3.24792 5.21109L9.08125 1.67575C10.568 0.774752 12.432 0.774752 13.9187 1.67575L19.7521 5.21109C21.1476 6.05688 22 7.57019 22 9.20204V16.5432C22 19.1205 19.9106 21.2098 17.3333 21.2098H15M8 21.2098V16.5432C8 14.6101 9.56695 13.0432 11.5 13.0432C13.433 13.0432 15 14.6101 15 16.5432V21.2098M8 21.2098H15H8Z" fill="#107BFD"/>
<path d="M8 21.2098H5.66667C3.08934 21.2098 1 19.1205 1 16.5432V9.20204C1 7.57019 1.85238 6.05688 3.24792 5.21109L9.08126 1.67575C10.5679 0.774752 12.432 0.774752 13.9187 1.67575L19.7521 5.21109C21.1476 6.05688 22 7.57019 22 9.20204V16.5432C22 19.1205 19.9106 21.2098 17.3333 21.2098H15M8 21.2098V16.5432C8 14.6101 9.56695 13.0432 11.5 13.0432C13.433 13.0432 15 14.6101 15 16.5432V21.2098M8 21.2098H15" stroke="#000141" stroke-width="2" stroke-linecap="round" stroke-linejoin="round"/>
</svg>
