<svg width="17" height="12" viewBox="0 0 17 12" fill="none" xmlns="http://www.w3.org/2000/svg">
<path d="M7.76471 0.705882C7.76471 0.893094 7.69034 1.07264 7.55796 1.20502C7.42558 1.3374 7.24603 1.41176 7.05882 1.41176H0.705882C0.518671 1.41176 0.339127 1.3374 0.206748 1.20502C0.0743697 1.07264 0 0.893094 0 0.705882C0 0.518671 0.0743697 0.339127 0.206748 0.206748C0.339127 0.0743697 0.518671 0 0.705882 0H7.05882C7.24603 0 7.42558 0.0743697 7.55796 0.206748C7.69034 0.339127 7.76471 0.518671 7.76471 0.705882ZM7.05882 3.52941H0.705882C0.518671 3.52941 0.339127 3.60378 0.206748 3.73616C0.0743697 3.86854 0 4.04808 0 4.23529C0 4.42251 0.0743697 4.60205 0.206748 4.73443C0.339127 4.86681 0.518671 4.94118 0.705882 4.94118H7.05882C7.24603 4.94118 7.42558 4.86681 7.55796 4.73443C7.69034 4.60205 7.76471 4.42251 7.76471 4.23529C7.76471 4.04808 7.69034 3.86854 7.55796 3.73616C7.42558 3.60378 7.24603 3.52941 7.05882 3.52941ZM7.05882 7.05882H0.705882C0.518671 7.05882 0.339127 7.13319 0.206748 7.26557C0.0743697 7.39795 0 7.57749 0 7.76471C0 7.95192 0.0743697 8.13146 0.206748 8.26384C0.339127 8.39622 0.518671 8.47059 0.705882 8.47059H7.05882C7.24603 8.47059 7.42558 8.39622 7.55796 8.26384C7.69034 8.13146 7.76471 7.95192 7.76471 7.76471C7.76471 7.57749 7.69034 7.39795 7.55796 7.26557C7.42558 7.13319 7.24603 7.05882 7.05882 7.05882ZM7.05882 10.5882H0.705882C0.518671 10.5882 0.339127 10.6626 0.206748 10.795C0.0743697 10.9274 0 11.1069 0 11.2941C0 11.4813 0.0743697 11.6609 0.206748 11.7933C0.339127 11.9256 0.518671 12 0.705882 12H7.05882C7.24603 12 7.42558 11.9256 7.55796 11.7933C7.69034 11.6609 7.76471 11.4813 7.76471 11.2941C7.76471 11.1069 7.69034 10.9274 7.55796 10.795C7.42558 10.6626 7.24603 10.5882 7.05882 10.5882ZM9.88235 1.41176H16.2353C16.4225 1.41176 16.602 1.3374 16.7344 1.20502C16.8668 1.07264 16.9412 0.893094 16.9412 0.705882C16.9412 0.518671 16.8668 0.339127 16.7344 0.206748C16.602 0.0743697 16.4225 0 16.2353 0H9.88235C9.69514 0 9.5156 0.0743697 9.38322 0.206748C9.25084 0.339127 9.17647 0.518671 9.17647 0.705882C9.17647 0.893094 9.25084 1.07264 9.38322 1.20502C9.5156 1.3374 9.69514 1.41176 9.88235 1.41176ZM16.2353 3.52941H9.88235C9.69514 3.52941 9.5156 3.60378 9.38322 3.73616C9.25084 3.86854 9.17647 4.04808 9.17647 4.23529C9.17647 4.42251 9.25084 4.60205 9.38322 4.73443C9.5156 4.86681 9.69514 4.94118 9.88235 4.94118H16.2353C16.4225 4.94118 16.602 4.86681 16.7344 4.73443C16.8668 4.60205 16.9412 4.42251 16.9412 4.23529C16.9412 4.04808 16.8668 3.86854 16.7344 3.73616C16.602 3.60378 16.4225 3.52941 16.2353 3.52941ZM16.2353 7.05882H9.88235C9.69514 7.05882 9.5156 7.13319 9.38322 7.26557C9.25084 7.39795 9.17647 7.57749 9.17647 7.76471C9.17647 7.95192 9.25084 8.13146 9.38322 8.26384C9.5156 8.39622 9.69514 8.47059 9.88235 8.47059H16.2353C16.4225 8.47059 16.602 8.39622 16.7344 8.26384C16.8668 8.13146 16.9412 7.95192 16.9412 7.76471C16.9412 7.57749 16.8668 7.39795 16.7344 7.26557C16.602 7.13319 16.4225 7.05882 16.2353 7.05882ZM16.2353 10.5882H9.88235C9.69514 10.5882 9.5156 10.6626 9.38322 10.795C9.25084 10.9274 9.17647 11.1069 9.17647 11.2941C9.17647 11.4813 9.25084 11.6609 9.38322 11.7933C9.5156 11.9256 9.69514 12 9.88235 12H16.2353C16.4225 12 16.602 11.9256 16.7344 11.7933C16.8668 11.6609 16.9412 11.4813 16.9412 11.2941C16.9412 11.1069 16.8668 10.9274 16.7344 10.795C16.602 10.6626 16.4225 10.5882 16.2353 10.5882Z" fill="#107BFD" fill-opacity="0.9"/>
</svg>
