<svg width="11" height="14" viewBox="0 0 11 14" fill="none" xmlns="http://www.w3.org/2000/svg">
<path d="M8.96018 0H1.12002C0.822974 0 0.538092 0.118002 0.328047 0.328047C0.118002 0.538092 0 0.822974 0 1.12002V13.4403C4.97271e-05 13.5402 0.0268439 13.6383 0.077602 13.7244C0.12836 13.8105 0.201233 13.8814 0.288657 13.9299C0.376082 13.9783 0.474874 14.0024 0.57478 13.9998C0.674687 13.9972 0.772067 13.9678 0.856817 13.9149L5.0401 11.3003L9.22408 13.9149C9.30882 13.9677 9.40613 13.9968 9.50593 13.9994C9.60573 14.0019 9.7044 13.9777 9.79171 13.9293C9.87903 13.8809 9.95182 13.8101 10.0025 13.7241C10.0533 13.6381 10.0801 13.5401 10.0802 13.4403V1.12002C10.0802 0.822974 9.9622 0.538092 9.75215 0.328047C9.54211 0.118002 9.25723 0 8.96018 0ZM8.96018 12.4301L5.33621 10.1656C5.2472 10.11 5.14436 10.0805 5.0394 10.0805C4.93444 10.0805 4.8316 10.11 4.74259 10.1656L1.12002 12.4301V1.12002H8.96018V12.4301Z" fill="#107BFD"/>
</svg>
