<svg width="18" height="13" viewBox="0 0 18 13" fill="none" xmlns="http://www.w3.org/2000/svg">
<path d="M0 0.832035C0 0.664525 0.066543 0.503877 0.18499 0.38543C0.303437 0.266982 0.464086 0.200439 0.631595 0.200439H14.5267C14.6942 0.200439 14.8549 0.266982 14.9733 0.38543C15.0917 0.503877 15.1583 0.664525 15.1583 0.832035C15.1583 0.999545 15.0917 1.16019 14.9733 1.27864C14.8549 1.39709 14.6942 1.46363 14.5267 1.46363H0.631595C0.464086 1.46363 0.303437 1.39709 0.18499 1.27864C0.066543 1.16019 0 0.999545 0 0.832035ZM8.21074 5.2532H0.631595C0.464086 5.2532 0.303437 5.31975 0.18499 5.43819C0.066543 5.55664 0 5.71729 0 5.8848C0 6.05231 0.066543 6.21296 0.18499 6.3314C0.303437 6.44985 0.464086 6.51639 0.631595 6.51639H8.21074C8.37825 6.51639 8.5389 6.44985 8.65735 6.3314C8.77579 6.21296 8.84234 6.05231 8.84234 5.8848C8.84234 5.71729 8.77579 5.55664 8.65735 5.43819C8.5389 5.31975 8.37825 5.2532 8.21074 5.2532ZM8.21074 10.306H0.631595C0.464086 10.306 0.303437 10.3725 0.18499 10.491C0.066543 10.6094 0 10.7701 0 10.9376C0 11.1051 0.066543 11.2657 0.18499 11.3842C0.303437 11.5026 0.464086 11.5692 0.631595 11.5692H8.21074C8.37825 11.5692 8.5389 11.5026 8.65735 11.3842C8.77579 11.2657 8.84234 11.1051 8.84234 10.9376C8.84234 10.7701 8.77579 10.6094 8.65735 10.491C8.5389 10.3725 8.37825 10.306 8.21074 10.306ZM17.0531 8.41118C17.053 8.51825 17.0258 8.62355 16.9738 8.71718C16.9219 8.81081 16.847 8.88971 16.7562 8.94646L11.7035 12.1044C11.6079 12.1642 11.4981 12.1972 11.3854 12.2002C11.2727 12.2032 11.1613 12.176 11.0627 12.1213C10.9641 12.0667 10.8819 11.9867 10.8246 11.8896C10.7674 11.7925 10.7372 11.6819 10.7371 11.5692V5.2532C10.7372 5.14049 10.7674 5.02984 10.8246 4.93274C10.8819 4.83565 10.9641 4.75564 11.0627 4.70102C11.1613 4.6464 11.2727 4.61917 11.3854 4.62214C11.4981 4.62511 11.6079 4.65819 11.7035 4.71793L16.7562 7.8759C16.847 7.93265 16.9219 8.01155 16.9738 8.10518C17.0258 8.19881 17.053 8.30411 17.0531 8.41118ZM15.2301 8.41118L12.0003 6.39244V10.4299L15.2301 8.41118Z" fill="#000141" fill-opacity="0.2"/>
</svg>
