<svg width="15" height="14" viewBox="0 0 15 14" fill="none" xmlns="http://www.w3.org/2000/svg">
<path d="M10.8 0C9.42333 0 8.218 0.647653 7.46667 1.74239C6.71533 0.647653 5.51 0 4.13333 0C3.03748 0.00135127 1.98687 0.478198 1.21199 1.32593C0.437107 2.17365 0.00123516 3.32303 0 4.5219C0 9.62727 6.91933 13.7597 7.214 13.9304C7.29167 13.9761 7.37848 14 7.46667 14C7.55486 14 7.64167 13.9761 7.71933 13.9304C8.014 13.7597 14.9333 9.62727 14.9333 4.5219C14.9321 3.32303 14.4962 2.17365 13.7213 1.32593C12.9465 0.478198 11.8958 0.00135127 10.8 0ZM7.46667 12.7488C6.24933 11.9728 1.06667 8.43772 1.06667 4.5219C1.06773 3.63247 1.39116 2.77979 1.96604 2.15087C2.54092 1.52194 3.32033 1.1681 4.13333 1.16694C5.43 1.16694 6.51867 1.92254 6.97333 3.13616C7.01352 3.24317 7.08187 3.3347 7.16971 3.39912C7.25755 3.46353 7.36092 3.49793 7.46667 3.49793C7.57242 3.49793 7.67578 3.46353 7.76362 3.39912C7.85146 3.3347 7.91982 3.24317 7.96 3.13616C8.41467 1.92035 9.50333 1.16694 10.8 1.16694C11.613 1.1681 12.3924 1.52194 12.9673 2.15087C13.5422 2.77979 13.8656 3.63247 13.8667 4.5219C13.8667 8.43188 8.68267 11.9721 7.46667 12.7488Z" fill="#000141" fill-opacity="0.2"/>
</svg>
