<svg width="19" height="16" viewBox="0 0 19 16" fill="none" xmlns="http://www.w3.org/2000/svg">
<path d="M17.5385 0H4.38462C3.99699 0 3.62524 0.153246 3.35115 0.426026C3.07706 0.698807 2.92308 1.06878 2.92308 1.45455V2.90909H1.46154C1.07391 2.90909 0.702166 3.06234 0.428075 3.33512C0.153983 3.6079 0 3.97787 0 4.36364V14.5455C0 14.9312 0.153983 15.3012 0.428075 15.574C0.702166 15.8468 1.07391 16 1.46154 16H14.6154C15.003 16 15.3748 15.8468 15.6488 15.574C15.9229 15.3012 16.0769 14.9312 16.0769 14.5455V13.0909H17.5385C17.9261 13.0909 18.2978 12.9377 18.5719 12.6649C18.846 12.3921 19 12.0221 19 11.6364V1.45455C19 1.06878 18.846 0.698807 18.5719 0.426026C18.2978 0.153246 17.9261 0 17.5385 0ZM4.38462 1.45455H17.5385V7.15909L16.6186 6.24455C16.4829 6.10944 16.3218 6.00227 16.1444 5.92915C15.9671 5.85604 15.777 5.8184 15.585 5.8184C15.3931 5.8184 15.203 5.85604 15.0256 5.92915C14.8483 6.00227 14.6872 6.10944 14.5514 6.24455L12.7245 8.06273L8.70529 4.06273C8.43122 3.79015 8.05962 3.63704 7.67216 3.63704C7.28471 3.63704 6.9131 3.79015 6.63904 4.06273L4.38462 6.30636V1.45455ZM14.6154 14.5455H1.46154V4.36364H2.92308V11.6364C2.92308 12.0221 3.07706 12.3921 3.35115 12.6649C3.62524 12.9377 3.99699 13.0909 4.38462 13.0909H14.6154V14.5455ZM17.5385 11.6364H4.38462V8.36364L7.67308 5.09091L12.2093 9.60546C12.3464 9.74174 12.5322 9.8183 12.7259 9.8183C12.9196 9.8183 13.1054 9.74174 13.2425 9.60546L15.5864 7.27273L17.5385 9.21636V11.6364ZM12.4231 4C12.4231 3.78424 12.4874 3.57332 12.6078 3.39392C12.7283 3.21452 12.8995 3.0747 13.0998 2.99213C13.3 2.90956 13.5204 2.88796 13.7331 2.93005C13.9457 2.97215 14.141 3.07604 14.2943 3.22861C14.4476 3.38118 14.552 3.57556 14.5943 3.78717C14.6366 3.99879 14.6149 4.21814 14.5319 4.41747C14.449 4.61681 14.3085 4.78719 14.1282 4.90706C13.948 5.02693 13.736 5.09091 13.5192 5.09091C13.2285 5.09091 12.9497 4.97597 12.7441 4.77139C12.5386 4.5668 12.4231 4.28933 12.4231 4Z" fill="black" fill-opacity="0.3"/>
</svg>
