<svg width="12" height="4" viewBox="0 0 12 4" fill="none" xmlns="http://www.w3.org/2000/svg">
<path d="M7.55556 1.55556C7.55556 1.86322 7.46432 2.16397 7.2934 2.41978C7.12247 2.67559 6.87953 2.87496 6.59529 2.9927C6.31105 3.11044 5.99827 3.14124 5.69653 3.08122C5.39478 3.0212 5.11761 2.87305 4.90006 2.6555C4.68251 2.43795 4.53436 2.16078 4.47433 1.85903C4.41431 1.55728 4.44512 1.24451 4.56285 0.96027C4.68059 0.67603 4.87997 0.433085 5.13578 0.262158C5.39159 0.0912316 5.69234 0 6 0C6.41256 0 6.80822 0.163888 7.09994 0.455612C7.39167 0.747335 7.55556 1.143 7.55556 1.55556ZM1.55556 0C1.2479 0 0.947146 0.0912316 0.691336 0.262158C0.435526 0.433085 0.236147 0.67603 0.11841 0.96027C0.000673996 1.24451 -0.0301312 1.55728 0.0298903 1.85903C0.0899117 2.16078 0.238064 2.43795 0.455612 2.6555C0.673161 2.87305 0.950334 3.0212 1.25208 3.08122C1.55383 3.14124 1.8666 3.11044 2.15084 2.9927C2.43508 2.87496 2.67803 2.67559 2.84895 2.41978C3.01988 2.16397 3.11111 1.86322 3.11111 1.55556C3.11111 1.143 2.94722 0.747335 2.6555 0.455612C2.36378 0.163888 1.96812 0 1.55556 0ZM10.4444 0C10.1368 0 9.83603 0.0912316 9.58022 0.262158C9.32441 0.433085 9.12504 0.67603 9.0073 0.96027C8.88956 1.24451 8.85876 1.55728 8.91878 1.85903C8.9788 2.16078 9.12695 2.43795 9.3445 2.6555C9.56205 2.87305 9.83922 3.0212 10.141 3.08122C10.4427 3.14124 10.7555 3.11044 11.0397 2.9927C11.324 2.87496 11.5669 2.67559 11.7378 2.41978C11.9088 2.16397 12 1.86322 12 1.55556C12 1.35128 11.9598 1.149 11.8816 0.96027C11.8034 0.771542 11.6888 0.600058 11.5444 0.455612C11.3999 0.311165 11.2285 0.196583 11.0397 0.118409C10.851 0.0402355 10.6487 0 10.4444 0Z" fill="#107BFD" fill-opacity="0.9"/>
</svg>
