<svg width="20" height="19" viewBox="0 0 20 19" fill="none" xmlns="http://www.w3.org/2000/svg">
<path d="M14.4643 0C12.6205 0 11.0063 0.854047 10 2.29766C8.99375 0.854047 7.37946 0 5.53571 0C4.06806 0.0017819 2.66099 0.630591 1.6232 1.74847C0.585411 2.86636 0.00165423 4.38202 0 5.96294C0 12.6953 9.26696 18.1447 9.66161 18.3697C9.76562 18.43 9.88189 18.4615 10 18.4615C10.1181 18.4615 10.2344 18.43 10.3384 18.3697C10.733 18.1447 20 12.6953 20 5.96294C19.9983 4.38202 19.4146 2.86636 18.3768 1.74847C17.339 0.630591 15.9319 0.0017819 14.4643 0ZM10 16.8117C8.36964 15.7883 1.42857 11.1267 1.42857 5.96294C1.42999 4.79006 1.86316 3.66566 2.63309 2.83631C3.40302 2.00695 4.44687 1.54035 5.53571 1.53882C7.27232 1.53882 8.73036 2.53521 9.33929 4.13559C9.3931 4.27671 9.48465 4.39741 9.60229 4.48235C9.71994 4.5673 9.85837 4.61265 10 4.61265C10.1416 4.61265 10.2801 4.5673 10.3977 4.48235C10.5154 4.39741 10.6069 4.27671 10.6607 4.13559C11.2696 2.53233 12.7277 1.53882 14.4643 1.53882C15.5531 1.54035 16.597 2.00695 17.3669 2.83631C18.1368 3.66566 18.57 4.79006 18.5714 5.96294C18.5714 11.119 11.6286 15.7874 10 16.8117Z" fill="#107BFD"/>
</svg>
