<svg width="15" height="16" viewBox="0 0 15 16" fill="none" xmlns="http://www.w3.org/2000/svg">
<path d="M14.4231 4.65883H10.9183L11.5291 0.775311C11.5536 0.602642 11.5185 0.425737 11.4313 0.282722C11.3441 0.139707 11.2118 0.0420331 11.0629 0.0107501C10.9141 -0.0205329 10.7605 0.0170799 10.6354 0.115483C10.5102 0.213885 10.4236 0.365199 10.394 0.536812L9.74495 4.65883H6.30288L6.9137 0.775311C6.93824 0.602642 6.90313 0.425737 6.81593 0.282722C6.72874 0.139707 6.59644 0.0420331 6.44755 0.0107501C6.29867 -0.0205329 6.14511 0.0170799 6.01998 0.115483C5.89485 0.213885 5.80817 0.365199 5.77861 0.536812L5.13029 4.65883H1.73077C1.57776 4.65883 1.43102 4.72911 1.32282 4.85423C1.21463 4.97934 1.15385 5.14902 1.15385 5.32596C1.15385 5.50289 1.21463 5.67257 1.32282 5.79769C1.43102 5.9228 1.57776 5.99308 1.73077 5.99308H4.92043L4.29087 9.99585H0.576923C0.423914 9.99585 0.277171 10.0661 0.168977 10.1912C0.0607828 10.3164 0 10.486 0 10.663C0 10.8399 0.0607828 11.0096 0.168977 11.1347C0.277171 11.2598 0.423914 11.3301 0.576923 11.3301H4.08173L3.47091 15.2136C3.44359 15.3877 3.47716 15.5672 3.56425 15.7126C3.65134 15.858 3.78482 15.9575 3.93534 15.9892C3.96935 15.9964 4.00387 16.0001 4.03846 16C4.17345 15.9998 4.30409 15.9448 4.40766 15.8447C4.51123 15.7446 4.58116 15.6057 4.60529 15.4521L5.25433 11.3301H8.69712L8.0863 15.2136C8.05897 15.3877 8.09254 15.5672 8.17964 15.7126C8.26673 15.858 8.40021 15.9575 8.55072 15.9892C8.58473 15.9964 8.61926 16.0001 8.65385 16C8.78883 15.9998 8.91947 15.9448 9.02304 15.8447C9.12661 15.7446 9.19654 15.6057 9.22067 15.4521L9.86971 11.3301H13.2692C13.4222 11.3301 13.569 11.2598 13.6772 11.1347C13.7854 11.0096 13.8462 10.8399 13.8462 10.663C13.8462 10.486 13.7854 10.3164 13.6772 10.1912C13.569 10.0661 13.4222 9.99585 13.2692 9.99585H10.0796L10.7091 5.99308H14.4231C14.5761 5.99308 14.7228 5.9228 14.831 5.79769C14.9392 5.67257 15 5.50289 15 5.32596C15 5.14902 14.9392 4.97934 14.831 4.85423C14.7228 4.72911 14.5761 4.65883 14.4231 4.65883ZM8.90625 9.99585H5.46418L6.09375 5.99308H9.53582L8.90625 9.99585Z" fill="black" fill-opacity="0.3"/>
</svg>
