<svg width="20" height="19" viewBox="0 0 20 19" fill="none" xmlns="http://www.w3.org/2000/svg">
<path d="M20 5.96245C20 12.6942 10.733 18.1432 10.3384 18.3682C10.2344 18.4285 10.1181 18.46 10 18.46C9.88189 18.46 9.76562 18.4285 9.66161 18.3682C9.26696 18.1432 0 12.6942 0 5.96245C0.00165423 4.38165 0.585411 2.86612 1.6232 1.74833C2.66099 0.630539 4.06806 0.00178175 5.53571 0C7.37946 0 8.99375 0.853976 10 2.29747C11.0063 0.853976 12.6205 0 14.4643 0C15.9319 0.00178175 17.339 0.630539 18.3768 1.74833C19.4146 2.86612 19.9983 4.38165 20 5.96245Z" fill="#FD4910"/>
</svg>
