<svg width="21" height="19" viewBox="0 0 21 19" fill="none" xmlns="http://www.w3.org/2000/svg">
<path d="M0.000622651 9.5C0.00271798 7.61106 0.754023 5.80009 2.0897 4.46441C3.42538 3.12873 5.23636 2.37743 7.12529 2.37533H17.8806L16.8564 1.35215C16.7079 1.20361 16.6244 1.00214 16.6244 0.79207C16.6244 0.582 16.7079 0.380534 16.8564 0.231992C17.0049 0.0834499 17.2064 4.94942e-09 17.4165 0C17.6266 -4.94942e-09 17.828 0.08345 17.9766 0.231992L20.3514 2.60688C20.4251 2.6804 20.4834 2.76771 20.5233 2.86381C20.5631 2.95992 20.5836 3.06293 20.5836 3.16696C20.5836 3.27099 20.5631 3.374 20.5233 3.47011C20.4834 3.56621 20.4251 3.65352 20.3514 3.72704L17.9766 6.10193C17.828 6.25047 17.6266 6.33392 17.4165 6.33392C17.2064 6.33392 17.0049 6.25047 16.8564 6.10193C16.7079 5.95339 16.6244 5.75192 16.6244 5.54185C16.6244 5.33178 16.7079 5.13031 16.8564 4.98177L17.8806 3.95859H7.12529C5.6561 3.96016 4.24754 4.54449 3.20866 5.58337C2.16978 6.62224 1.58545 8.03081 1.58388 9.5C1.58388 9.70995 1.50048 9.91131 1.35202 10.0598C1.20356 10.2082 1.00221 10.2916 0.792253 10.2916C0.582299 10.2916 0.380945 10.2082 0.232486 10.0598C0.0840262 9.91131 0.000622651 9.70995 0.000622651 9.5ZM19.7914 8.70837C19.5814 8.70837 19.3801 8.79177 19.2316 8.94023C19.0831 9.08869 18.9997 9.29005 18.9997 9.5C18.9982 10.9692 18.4138 12.3778 17.375 13.4166C16.3361 14.4555 14.9275 15.0398 13.4583 15.0414H2.70305L3.72722 14.0182C3.80077 13.9447 3.85911 13.8574 3.89892 13.7613C3.93872 13.6652 3.95921 13.5622 3.95921 13.4581C3.95921 13.3541 3.93872 13.2511 3.89892 13.155C3.85911 13.0589 3.80077 12.9716 3.72722 12.8981C3.65367 12.8245 3.56635 12.7662 3.47025 12.7264C3.37416 12.6866 3.27116 12.6661 3.16714 12.6661C3.06313 12.6661 2.96013 12.6866 2.86403 12.7264C2.76793 12.7662 2.68061 12.8245 2.60706 12.8981L0.232174 15.273C0.158571 15.3465 0.100182 15.4338 0.0603433 15.5299C0.0205051 15.626 0 15.729 0 15.833C0 15.9371 0.0205051 16.0401 0.0603433 16.1362C0.100182 16.2323 0.158571 16.3196 0.232174 16.3931L2.60706 18.768C2.68061 18.8416 2.76793 18.8999 2.86403 18.9397C2.96013 18.9795 3.06313 19 3.16714 19C3.27116 19 3.37416 18.9795 3.47025 18.9397C3.56635 18.8999 3.65367 18.8416 3.72722 18.768C3.80077 18.6945 3.85911 18.6071 3.89892 18.511C3.93872 18.4149 3.95921 18.3119 3.95921 18.2079C3.95921 18.1039 3.93872 18.0009 3.89892 17.9048C3.85911 17.8087 3.80077 17.7214 3.72722 17.6479L2.70305 16.6247H13.4583C15.3473 16.6226 17.1582 15.8713 18.4939 14.5356C19.8296 13.1999 20.5809 11.3889 20.583 9.5C20.583 9.29005 20.4996 9.08869 20.3511 8.94023C20.2027 8.79177 20.0013 8.70837 19.7914 8.70837Z" fill="#107BFD"/>
</svg>
