<svg width="19" height="19" viewBox="0 0 19 19" fill="none" xmlns="http://www.w3.org/2000/svg">
<path d="M9.49701 2.26242e-07C11.1373 -0.000357676 12.7498 0.423927 14.1774 1.23156C15.6051 2.03918 16.7993 3.20264 17.6439 4.60869C18.4884 6.01473 18.9545 7.61546 18.9968 9.25506C19.0391 10.8947 18.6562 12.5173 17.8852 13.965L18.9221 17.0753C19.008 17.3329 19.0205 17.6092 18.9581 17.8734C18.8957 18.1376 18.761 18.3792 18.5691 18.5712C18.3771 18.7631 18.1354 18.8978 17.8712 18.9602C17.607 19.0225 17.3306 19.0101 17.0731 18.9242L13.9624 17.8874C12.6883 18.5651 11.2764 18.9435 9.83409 18.9942C8.39176 19.0448 6.95686 18.7661 5.6383 18.1795C4.31975 17.5928 3.15218 16.7134 2.22424 15.6082C1.2963 14.503 0.632368 13.2009 0.282842 11.8008C-0.0666834 10.4007 -0.092616 8.93932 0.207012 7.52769C0.50664 6.11606 1.12395 4.79123 2.0121 3.65377C2.90024 2.51631 4.03586 1.59611 5.33278 0.963021C6.62969 0.329932 8.0538 0.000592133 9.49701 2.26242e-07ZM9.49701 17.5385C10.9103 17.5394 12.2988 17.1673 13.5221 16.4597C13.6117 16.4077 13.7113 16.3754 13.8143 16.3649C13.9173 16.3543 14.0213 16.3658 14.1196 16.3985L17.5362 17.5385L16.3971 14.1221C16.3642 14.0239 16.3526 13.9199 16.363 13.8169C16.3734 13.7139 16.4056 13.6143 16.4573 13.5247C17.3435 11.9928 17.6993 10.2112 17.4695 8.45643C17.2398 6.70165 16.4373 5.07174 15.1865 3.81954C13.9358 2.56735 12.3067 1.76286 10.5521 1.53089C8.79742 1.29892 7.01525 1.65243 5.48203 2.53658C3.94881 3.42073 2.75025 4.78609 2.07227 6.42086C1.3943 8.05563 1.27482 9.86842 1.73236 11.578C2.18991 13.2876 3.1989 14.7985 4.60282 15.8762C6.00673 16.9539 7.72709 17.5382 9.49701 17.5385Z" fill="#107BFD"/>
</svg>
