<svg width="30" height="31" viewBox="0 0 30 31" fill="none" xmlns="http://www.w3.org/2000/svg">
<path d="M20.8333 15.4561V14.5537V12.6787C20.8333 12.1631 20.4583 11.7412 20 11.7412H18.3333H17.5H15.0781C12.4271 11.7412 10.1875 13.7041 9.4375 16.4053C9.26562 15.8545 9.16667 15.2451 9.16667 14.5537C9.16667 10.9268 11.776 7.99121 15 7.99121H17.5H18.3333H20C20.4583 7.99121 20.8333 7.56934 20.8333 7.05371V5.17871V4.27637L26.3542 9.86621L20.8333 15.4561ZM17.5 14.5537H18.3333V17.3662C18.3333 18.4033 19.0781 19.2412 20 19.2412H20.1927C20.6042 19.2412 21 19.0713 21.3073 18.7607L28.5469 11.4307C28.9427 11.0322 29.1667 10.4639 29.1667 9.86621C29.1667 9.26855 28.9427 8.7002 28.5469 8.30176L21.349 1.0127C21.0156 0.678711 20.5885 0.491211 20.1406 0.491211C19.1406 0.491211 18.3333 1.39941 18.3333 2.52441V5.17871H17.5H15.8333H15C10.3958 5.17871 6.66667 9.37402 6.66667 14.5537C6.66667 18.0928 8.46875 20.3604 9.99479 21.6377C10.3021 21.8955 10.5938 22.1123 10.8646 22.2939C11.0938 22.4521 11.3073 22.5811 11.4844 22.6807C11.6615 22.7803 11.8073 22.8564 11.9115 22.9092C12.026 22.9678 12.151 22.9912 12.2812 22.9912H12.4115C12.9219 22.9912 13.3385 22.5225 13.3385 21.9482C13.3385 21.4912 13.0625 21.0869 12.7344 20.8057C12.7135 20.7881 12.6979 20.7764 12.6771 20.7588C12.5885 20.6943 12.5 20.6123 12.4167 20.5186C12.375 20.4717 12.3281 20.4248 12.2865 20.3662C12.2448 20.3076 12.2031 20.2549 12.1615 20.1963C12.0677 20.0498 11.9792 19.8857 11.901 19.6982C11.7656 19.3467 11.6771 18.9189 11.6771 18.3857C11.6771 16.2705 13.2031 14.5479 15.0885 14.5479H15.8333H17.5V14.5537ZM3.75 2.36621C1.67708 2.36621 0 4.25293 0 6.58496V26.2725C0 28.6045 1.67708 30.4912 3.75 30.4912H21.25C23.3229 30.4912 25 28.6045 25 26.2725V22.5225C25 21.7432 24.4427 21.1162 23.75 21.1162C23.0573 21.1162 22.5 21.7432 22.5 22.5225V26.2725C22.5 27.0518 21.9427 27.6787 21.25 27.6787H3.75C3.05729 27.6787 2.5 27.0518 2.5 26.2725V6.58496C2.5 5.80566 3.05729 5.17871 3.75 5.17871H7.08333C7.77604 5.17871 8.33333 4.55176 8.33333 3.77246C8.33333 2.99316 7.77604 2.36621 7.08333 2.36621H3.75Z" fill="#F1FCFD"/>
</svg>
