<svg width="21" height="21" viewBox="0 0 21 21" fill="none" xmlns="http://www.w3.org/2000/svg">
<path d="M10.1563 0C8.14754 0 6.18393 0.595654 4.51374 1.71164C2.84356 2.82762 1.54181 4.41381 0.773103 6.26962C0.00440055 8.12543 -0.196727 10.1675 0.195154 12.1376C0.587035 14.1078 1.55432 15.9174 2.9747 17.3378C4.39508 18.7582 6.20475 19.7255 8.17487 20.1174C10.145 20.5092 12.1871 20.3081 14.0429 19.5394C15.8987 18.7707 17.4849 17.4689 18.6009 15.7988C19.7169 14.1286 20.3125 12.165 20.3125 10.1563C20.3097 7.46352 19.2387 4.88189 17.3347 2.97784C15.4306 1.07379 12.849 0.00284357 10.1563 0ZM9.76563 4.6875C9.99741 4.6875 10.224 4.75623 10.4167 4.885C10.6094 5.01376 10.7596 5.19679 10.8483 5.41092C10.937 5.62505 10.9602 5.86068 10.915 6.088C10.8698 6.31532 10.7582 6.52413 10.5943 6.68802C10.4304 6.85191 10.2216 6.96352 9.99425 7.00873C9.76693 7.05395 9.53131 7.03074 9.31717 6.94205C9.10304 6.85335 8.92002 6.70315 8.79125 6.51043C8.66248 6.31772 8.59375 6.09115 8.59375 5.85938C8.59375 5.54857 8.71722 5.2505 8.93699 5.03073C9.15676 4.81097 9.45483 4.6875 9.76563 4.6875ZM10.9375 15.625C10.5231 15.625 10.1257 15.4604 9.83265 15.1674C9.53963 14.8743 9.375 14.4769 9.375 14.0625V10.1563C9.1678 10.1563 8.96909 10.0739 8.82258 9.92743C8.67607 9.78092 8.59375 9.5822 8.59375 9.375C8.59375 9.1678 8.67607 8.96909 8.82258 8.82257C8.96909 8.67606 9.1678 8.59375 9.375 8.59375C9.78941 8.59375 10.1868 8.75837 10.4799 9.0514C10.7729 9.34442 10.9375 9.74185 10.9375 10.1563V14.0625C11.1447 14.0625 11.3434 14.1448 11.4899 14.2913C11.6364 14.4378 11.7188 14.6366 11.7188 14.8438C11.7188 15.051 11.6364 15.2497 11.4899 15.3962C11.3434 15.5427 11.1447 15.625 10.9375 15.625Z" fill="black"/>
</svg>
