<svg width="21" height="20" viewBox="0 0 21 20" fill="none" xmlns="http://www.w3.org/2000/svg">
<path d="M8.74158 19.3622C8.74158 19.5315 8.67433 19.6939 8.55463 19.8136C8.43492 19.9333 8.27256 20.0006 8.10327 20.0006H1.29457C1.12527 20.0006 0.962916 19.9333 0.843208 19.8136C0.723501 19.6939 0.65625 19.5315 0.65625 19.3622V0.638316C0.65625 0.469024 0.723501 0.306666 0.843208 0.186958C0.962916 0.0672508 1.12527 0 1.29457 0H8.10327C8.27256 0 8.43492 0.0672508 8.55463 0.186958C8.67433 0.306666 8.74158 0.469024 8.74158 0.638316C8.74158 0.807608 8.67433 0.969966 8.55463 1.08967C8.43492 1.20938 8.27256 1.27663 8.10327 1.27663H1.93288V18.7239H8.10327C8.27256 18.7239 8.43492 18.7912 8.55463 18.9109C8.67433 19.0306 8.74158 19.193 8.74158 19.3622ZM20.4696 9.5492L16.2141 5.29377C16.0931 5.18101 15.9331 5.11963 15.7677 5.12255C15.6024 5.12547 15.4446 5.19246 15.3276 5.30941C15.2107 5.42636 15.1437 5.58414 15.1408 5.7495C15.1378 5.91487 15.1992 6.07491 15.312 6.19592L18.477 9.36196H8.10327C7.93398 9.36196 7.77162 9.42922 7.65191 9.54892C7.5322 9.66863 7.46495 9.83099 7.46495 10.0003C7.46495 10.1696 7.5322 10.3319 7.65191 10.4516C7.77162 10.5713 7.93398 10.6386 8.10327 10.6386H18.477L15.312 13.8046C15.2493 13.8631 15.199 13.9335 15.1641 14.0118C15.1292 14.0901 15.1104 14.1747 15.1089 14.2604C15.1074 14.3461 15.1232 14.4312 15.1553 14.5107C15.1874 14.5902 15.2352 14.6624 15.2958 14.723C15.3564 14.7836 15.4286 14.8314 15.5081 14.8635C15.5876 14.8956 15.6727 14.9114 15.7584 14.9099C15.8441 14.9083 15.9286 14.8896 16.0069 14.8547C16.0852 14.8198 16.1557 14.7695 16.2141 14.7068L20.4696 10.4514C20.5891 10.3317 20.6562 10.1694 20.6562 10.0003C20.6562 9.83113 20.5891 9.66889 20.4696 9.5492Z" fill="#FF0000"/>
</svg>
