<svg width="19" height="21" viewBox="0 0 19 21" fill="none" xmlns="http://www.w3.org/2000/svg">
<path d="M17.1562 7.40625H14.1562V5.15625C14.1562 3.96278 13.6821 2.81818 12.8382 1.97427C11.9943 1.13036 10.8497 0.65625 9.65625 0.65625C8.46278 0.65625 7.31818 1.13036 6.47427 1.97427C5.63036 2.81818 5.15625 3.96278 5.15625 5.15625V7.40625H2.15625C1.75843 7.40625 1.37689 7.56429 1.09559 7.84559C0.814285 8.12689 0.65625 8.50843 0.65625 8.90625V19.4062C0.65625 19.8041 0.814285 20.1856 1.09559 20.4669C1.37689 20.7482 1.75843 20.9062 2.15625 20.9062H17.1562C17.5541 20.9062 17.9356 20.7482 18.2169 20.4669C18.4982 20.1856 18.6562 19.8041 18.6562 19.4062V8.90625C18.6562 8.50843 18.4982 8.12689 18.2169 7.84559C17.9356 7.56429 17.5541 7.40625 17.1562 7.40625ZM6.65625 5.15625C6.65625 4.3606 6.97232 3.59754 7.53493 3.03493C8.09754 2.47232 8.8606 2.15625 9.65625 2.15625C10.4519 2.15625 11.215 2.47232 11.7776 3.03493C12.3402 3.59754 12.6562 4.3606 12.6562 5.15625V7.40625H6.65625V5.15625Z" fill="black"/>
</svg>
