<svg width="13" height="18" viewBox="0 0 13 18" fill="none" xmlns="http://www.w3.org/2000/svg">
<path d="M11.5556 0H1.44444C1.06135 0 0.693954 0.1443 0.423068 0.401154C0.152182 0.658009 0 1.00638 0 1.36963V16.4355C6.41309e-05 16.5577 0.0346194 16.6777 0.10008 16.783C0.165541 16.8883 0.259521 16.975 0.372269 17.0342C0.485017 17.0935 0.612424 17.123 0.741269 17.1198C0.870114 17.1165 0.995702 17.0807 1.105 17.0159L6.5 13.8187L11.8959 17.0159C12.0052 17.0805 12.1307 17.1161 12.2594 17.1192C12.3881 17.1224 12.5153 17.0928 12.6279 17.0336C12.7406 16.9744 12.8344 16.8877 12.8998 16.7826C12.9653 16.6774 12.9998 16.5576 13 16.4355V1.36963C13 1.00638 12.8478 0.658009 12.5769 0.401154C12.306 0.1443 11.9386 0 11.5556 0ZM11.5556 15.2003L6.88187 12.4311C6.76709 12.3631 6.63446 12.327 6.4991 12.327C6.36374 12.327 6.2311 12.3631 6.11632 12.4311L1.44444 15.2003V1.36963H11.5556V15.2003Z" fill="black"/>
</svg>
