<svg width="53" height="42" viewBox="0 0 53 42" fill="none" xmlns="http://www.w3.org/2000/svg">
<path d="M22.0392 27.125H24.2475V21.875H30.8725V20.125H24.2475V14.875H22.0392V20.125H15.4142V21.875H22.0392V27.125ZM11.2559 33.25C10.2401 33.25 9.39135 32.9805 8.70971 32.4415C8.02807 31.9025 7.68799 31.2299 7.68946 30.4238V11.5762C7.68946 10.7712 8.02954 10.0992 8.70971 9.56025C9.38987 9.02125 10.2379 8.75117 11.2537 8.75H35.0375C36.0533 8.75 36.9013 9.02008 37.5815 9.56025C38.2616 10.1004 38.6024 10.7724 38.6039 11.5762V19.7208L45.3128 14.4043V27.5958L38.6039 22.2793V30.4238C38.6039 31.2288 38.2631 31.9008 37.5815 32.4398C36.8998 32.9788 36.0511 33.2488 35.0353 33.25H11.2559Z" fill="#107BFD"/>
</svg>
